<?xml version="1.0" encoding="UTF-8" standalone="no"?>
<!-- Generator: Adobe Illustrator 19.0.0, SVG Export Plug-In . SVG Version: 6.00 Build 0)  -->

<svg
   xmlns:dc="http://purl.org/dc/elements/1.1/"
   xmlns:cc="http://creativecommons.org/ns#"
   xmlns:rdf="http://www.w3.org/1999/02/22-rdf-syntax-ns#"
   xmlns:svg="http://www.w3.org/2000/svg"
   xmlns="http://www.w3.org/2000/svg"
   xmlns:sodipodi="http://sodipodi.sourceforge.net/DTD/sodipodi-0.dtd"
   xmlns:inkscape="http://www.inkscape.org/namespaces/inkscape"
   version="1.1"
   id="Capa_1"
   x="0px"
   y="0px"
   viewBox="0 0 58 58"
   style="enable-background:new 0 0 58 58;"
   xml:space="preserve"
   sodipodi:docname="favicon.svg"
   inkscape:version="0.92.4 5da689c313, 2019-01-14"><metadata
   id="metadata51"><rdf:RDF><cc:Work
       rdf:about=""><dc:format>image/svg+xml</dc:format><dc:type
         rdf:resource="http://purl.org/dc/dcmitype/StillImage" /><dc:title></dc:title></cc:Work></rdf:RDF></metadata><defs
   id="defs49" /><sodipodi:namedview
   pagecolor="#ffffff"
   bordercolor="#666666"
   borderopacity="1"
   objecttolerance="10"
   gridtolerance="10"
   guidetolerance="10"
   inkscape:pageopacity="0"
   inkscape:pageshadow="2"
   inkscape:window-width="1366"
   inkscape:window-height="705"
   id="namedview47"
   showgrid="false"
   inkscape:zoom="5.6568543"
   inkscape:cx="23.345616"
   inkscape:cy="37.123935"
   inkscape:window-x="0"
   inkscape:window-y="30"
   inkscape:window-maximized="1"
   inkscape:current-layer="g156" />







<g
   id="g16">
</g>
<g
   id="g18">
</g>
<g
   id="g20">
</g>
<g
   id="g22">
</g>
<g
   id="g24">
</g>
<g
   id="g26">
</g>
<g
   id="g28">
</g>
<g
   id="g30">
</g>
<g
   id="g32">
</g>
<g
   id="g34">
</g>
<g
   id="g36">
</g>
<g
   id="g38">
</g>
<g
   id="g40">
</g>
<g
   id="g42">
</g>
<g
   id="g44">
</g>
<g
   id="g156"
   transform="translate(-3,0.24576271)"><path
     style="fill:#ba3925;fill-opacity:1;stroke-width:1.04610693"
     d="M 4 10 L 4 48 C 4 53.54 8.46 58 14 58 L 54 58 L 54 20 L 44 20 L 19.375 20 L 14 20 C 13.65375 20 13.311597 19.983237 12.974609 19.949219 C 12.300635 19.881182 11.646553 19.746943 11.019531 19.552734 C 9.1379557 18.969949 7.4982776 17.848303 6.2773438 16.367188 C 6.0742038 16.120837 5.8822287 15.865064 5.703125 15.599609 C 5.7028143 15.599149 5.7034356 15.598117 5.703125 15.597656 C 5.5240802 15.332199 5.3564938 15.058303 5.203125 14.775391 C 5.2028463 14.774876 5.2034036 14.773952 5.203125 14.773438 C 5.0495361 14.490005 4.909375 14.199687 4.7832031 13.900391 C 4.5306176 13.301223 4.3359046 12.67235 4.203125 12.019531 C 4.1367383 11.693457 4.0847998 11.362378 4.0507812 11.025391 C 4.0167627 10.688403 4 10.34625 4 10 z "
     transform="translate(3,-0.24576271)"
     id="rect53" /><path
     inkscape:connector-curvature="0"
     id="rect53-6"
     d="M 7,9.7542373 V 47.754237 c 0,5.54 4.46,10 10,10 h 10 v -38 H 17 c -5.54,0 -10,-4.46 -10,-9.9999997 z"
     style="fill:#7a2518;fill-opacity:1;stroke-width:1.04610693" /><path
     style="fill:#ffffff;fill-opacity:1"
     d="m 17,-0.24543167 c -5.54,0 -10,4.45999997 -10,10.00000027 0,5.5400004 4.46,10.0000004 10,10.0000004 H 22.375 47 57 l 0,-20.00000067 z"
     id="rect53-3-5"
     inkscape:connector-curvature="0"
     sodipodi:nodetypes="sssccccs" /></g></svg>